<svg width="19" height="18" viewBox="0 0 19 18" fill="none" xmlns="http://www.w3.org/2000/svg">
<path d="M12.7 5.7995V9.7995C12.7 10.436 12.9529 11.0465 13.4029 11.4966C13.853 11.9466 14.4635 12.1995 15.1 12.1995C15.7365 12.1995 16.347 11.9466 16.7971 11.4966C17.2471 11.0465 17.5 10.436 17.5 9.7995V8.9995C17.4999 7.19392 16.889 5.44148 15.7666 4.02713C14.6443 2.61277 13.0764 1.61968 11.3181 1.20934C9.55979 0.798999 7.71435 0.995537 6.08188 1.767C4.44942 2.53846 3.12592 3.83947 2.32661 5.45848C1.5273 7.07749 1.29918 8.91929 1.67934 10.6844C2.0595 12.4495 3.02559 14.0341 4.42051 15.1805C5.81543 16.3269 7.55715 16.9678 9.36246 16.9988C11.1678 17.0299 12.9305 16.4493 14.364 15.3515M12.7 8.9995C12.7 10.7668 11.2673 12.1995 9.50001 12.1995C7.7327 12.1995 6.30001 10.7668 6.30001 8.9995C6.30001 7.23219 7.7327 5.7995 9.50001 5.7995C11.2673 5.7995 12.7 7.23219 12.7 8.9995Z" stroke="white" stroke-opacity="0.66" stroke-width="1.4" stroke-linecap="round" stroke-linejoin="round"/>
</svg>
