<svg width="20" height="18" viewBox="0 0 20 18" fill="none" xmlns="http://www.w3.org/2000/svg">
<path d="M12.0084 3.90351C12.2483 3.66369 12.1117 3.25627 11.7743 3.2225C11.1849 3.16352 10.5927 3.13402 10 3.13417C4.47778 3.13417 0 5.62194 0 8.68972C0 10.2155 1.10746 11.5979 2.90033 12.6016C3.05736 12.6895 3.25318 12.6588 3.38043 12.5315L5.60953 10.3024C5.72069 10.1913 5.75739 10.027 5.71538 9.87548C5.51717 9.16064 5.5007 8.40609 5.6694 7.68092C5.85753 6.87222 6.26844 6.13238 6.85555 5.54527C7.44266 4.95816 8.1825 4.54725 8.9912 4.35912C9.71637 4.19042 10.4709 4.20689 11.1858 4.4051C11.3373 4.44711 11.5015 4.41041 11.6127 4.29925L12.0084 3.90351ZM8.98881 13.2077C9.08607 13.1104 9.22529 13.0693 9.3615 13.089C9.57026 13.1191 9.7831 13.1342 10 13.1342C10.6563 13.1343 11.3044 12.9891 11.8979 12.709C12.4914 12.4289 13.0154 12.0208 13.4325 11.5141C13.8495 11.0074 14.1492 10.4147 14.3099 9.77839C14.4527 9.21326 14.4828 8.62628 14.3992 8.05085C14.3794 7.91487 14.4205 7.77589 14.5177 7.67875L17.0766 5.12078C17.21 4.98747 17.4176 4.96075 17.5761 5.06292C19.0863 6.03636 20 7.30457 20 8.68972C20 11.7575 15.5222 14.2453 10 14.2453C9.6317 14.2453 9.26896 14.2346 8.91176 14.2133C8.56649 14.1927 8.41879 13.7783 8.66324 13.5336L8.98881 13.2077ZM16.4367 1.14194C16.5392 1.03582 16.6618 0.951174 16.7973 0.892942C16.9329 0.83471 17.0787 0.804058 17.2262 0.802776C17.3738 0.801494 17.5201 0.829607 17.6566 0.885475C17.7932 0.941342 17.9172 1.02385 18.0215 1.12817C18.1259 1.2325 18.2084 1.35655 18.2642 1.49311C18.3201 1.62966 18.3482 1.77597 18.3469 1.9235C18.3457 2.07103 18.315 2.21683 18.2568 2.35239C18.1985 2.48795 18.1139 2.61056 18.0078 2.71305L3.86667 16.8564C3.76417 16.9625 3.64157 17.0472 3.50601 17.1054C3.37045 17.1636 3.22464 17.1943 3.07711 17.1956C2.92958 17.1968 2.78327 17.1687 2.64672 17.1129C2.51017 17.057 2.38611 16.9745 2.28178 16.8702C2.17746 16.7658 2.09495 16.6418 2.03909 16.5052C1.98322 16.3687 1.95511 16.2224 1.95639 16.0748C1.95767 15.9273 1.98832 15.7815 2.04655 15.6459C2.10479 15.5104 2.18943 15.3878 2.29556 15.2853L16.4367 1.14194Z" fill="white" fill-opacity="0.66"/>
</svg>
