<svg width="19" height="22" viewBox="0 0 19 22" fill="none" xmlns="http://www.w3.org/2000/svg">
<path d="M15.0285 14.0663L14.3285 14.0562L14.3183 14.7663H15.0285V14.0663ZM15.0897 9.82799L15.7896 9.8381L15.0897 9.82799ZM14.319 9.59681L14.8825 10.0122L14.8898 10.0023L14.8968 9.99202L14.319 9.59681ZM9.85883 15.646L9.29541 15.2306L9.29394 15.2326L9.85883 15.646ZM12.6738 16.3395L13.3737 16.3496L13.3839 15.6395H12.6738V16.3395ZM12.6126 20.5778L11.9126 20.5677L12.6126 20.5778ZM13.3832 20.809L12.8181 20.3959L12.8116 20.4047L12.8054 20.4138L13.3832 20.809ZM17.8047 14.7598L17.2495 14.3335L17.2444 14.3401L17.2396 14.3467L17.8047 14.7598ZM16.2866 6.55556C16.2866 6.94216 16.6 7.25556 16.9866 7.25556C17.3732 7.25556 17.6866 6.94216 17.6866 6.55556H16.2866ZM8.75935 21.0237C9.14595 21.0237 9.45935 20.7103 9.45935 20.3237C9.45935 19.9371 9.14595 19.6237 8.75935 19.6237V21.0237ZM1.81649 18.741L2.43996 18.4228H2.43996L1.81649 18.741ZM3.08547 20.0077L2.76813 20.6317H2.76813L3.08547 20.0077ZM15.4011 1.31592L15.7185 0.691989L15.7185 0.691989L15.4011 1.31592ZM16.6701 2.58264L16.0467 2.90088V2.90088L16.6701 2.58264ZM3.08547 1.31592L3.40281 1.93986V1.93986L3.08547 1.31592ZM1.81649 2.58264L2.43996 2.90088L1.81649 2.58264ZM10.066 10.3957C10.4526 10.3957 10.766 10.0823 10.766 9.69565C10.766 9.30905 10.4526 8.99565 10.066 8.99565V10.3957ZM5.37165 8.99565C4.98505 8.99565 4.67165 9.30905 4.67165 9.69565C4.67165 10.0823 4.98505 10.3957 5.37165 10.3957V8.99565ZM7.30748 14.2604C7.69408 14.2604 8.00748 13.947 8.00748 13.5604C8.00748 13.1738 7.69408 12.8604 7.30748 12.8604V14.2604ZM5.37165 12.8604C4.98505 12.8604 4.67165 13.1738 4.67165 13.5604C4.67165 13.947 4.98505 14.2604 5.37165 14.2604V12.8604ZM13.115 6.53092C13.5016 6.53092 13.815 6.21752 13.815 5.83092C13.815 5.44432 13.5016 5.13092 13.115 5.13092V6.53092ZM5.37165 5.13092C4.98505 5.13092 4.67165 5.44432 4.67165 5.83092C4.67165 6.21752 4.98505 6.53092 5.37165 6.53092V5.13092ZM17.5051 13.3663H15.0285V14.7663H17.5051V13.3663ZM15.7284 14.0764L15.7896 9.8381L14.3897 9.81789L14.3285 14.0562L15.7284 14.0764ZM15.7896 9.8381C15.8067 8.65264 14.3313 8.3391 13.7413 9.20161L14.8968 9.99202C14.8292 10.0909 14.699 10.1247 14.5981 10.095C14.5491 10.0806 14.4955 10.0491 14.4528 9.9943C14.4065 9.93482 14.389 9.86799 14.3897 9.81789L15.7896 9.8381ZM13.7556 9.1814L9.29542 15.2306L10.4222 16.0614L14.8825 10.0122L13.7556 9.1814ZM9.29394 15.2326C9.02221 15.6039 9.0318 16.0557 9.18992 16.3919C9.35158 16.7355 9.70879 17.0395 10.1971 17.0395V15.6395C10.3371 15.6395 10.4265 15.7316 10.4567 15.7959C10.4835 15.8527 10.4981 15.9578 10.4237 16.0594L9.29394 15.2326ZM10.1971 17.0395H12.6738V15.6395H10.1971V17.0395ZM11.9738 16.3294L11.9126 20.5677L13.3125 20.5879L13.3737 16.3496L11.9738 16.3294ZM11.9126 20.5677C11.8955 21.7531 13.371 22.0667 13.961 21.2042L12.8054 20.4138C12.8731 20.3149 13.0032 20.2811 13.1041 20.3108C13.1532 20.3252 13.2067 20.3567 13.2494 20.4115C13.2957 20.471 13.3132 20.5378 13.3125 20.5879L11.9126 20.5677ZM13.9483 21.2221L18.3698 15.1729L17.2396 14.3467L12.8181 20.3959L13.9483 21.2221ZM18.36 15.1861C18.6269 14.8383 18.685 14.3917 18.5122 14.0092C18.3397 13.6275 17.9585 13.3663 17.5051 13.3663V14.7663C17.4 14.7663 17.287 14.6977 17.2364 14.5857C17.1854 14.4729 17.2191 14.3731 17.2495 14.3335L18.36 15.1861ZM6.14599 1.7H12.3406V0.3H6.14599V1.7ZM2.2 15.686V5.63768H0.8V15.686H2.2ZM16.2866 5.63768V6.55556H17.6866V5.63768H16.2866ZM8.75935 19.6237H6.14585V21.0237H8.75935V19.6237ZM0.8 15.686C0.8 16.4861 0.799454 17.1283 0.841894 17.6469C0.885007 18.1736 0.975948 18.634 1.19301 19.0593L2.43996 18.4228C2.34054 18.228 2.27324 17.9726 2.23723 17.5326C2.20055 17.0845 2.2 16.5092 2.2 15.686H0.8ZM6.14585 19.6237C5.32124 19.6237 4.74481 19.6231 4.29568 19.5865C3.8547 19.5505 3.59837 19.4833 3.40281 19.3838L2.76813 20.6317C3.19371 20.8481 3.6545 20.9389 4.18188 20.9819C4.70111 21.0242 5.3443 21.0237 6.14585 21.0237V19.6237ZM1.19301 19.0593C1.53869 19.7365 2.09014 20.2868 2.76813 20.6317L3.40281 19.3838C2.98805 19.1729 2.65107 18.8364 2.43996 18.4228L1.19301 19.0593ZM12.3406 1.7C13.1653 1.7 13.7418 1.70054 14.1909 1.73717C14.6319 1.77314 14.8882 1.8404 15.0838 1.93986L15.7185 0.691989C15.2929 0.475528 14.8321 0.38482 14.3047 0.341807C13.7854 0.299458 13.1422 0.3 12.3406 0.3V1.7ZM17.6866 5.63768C17.6866 4.83758 17.6872 4.19533 17.6447 3.67682C17.6016 3.15009 17.5107 2.68965 17.2936 2.26439L16.0467 2.90088C16.1461 3.09566 16.2134 3.35107 16.2494 3.79102C16.2861 4.23918 16.2866 4.81444 16.2866 5.63768H17.6866ZM15.0838 1.93986C15.4986 2.15081 15.8355 2.4873 16.0467 2.90088L17.2936 2.26439C16.9479 1.58718 16.3965 1.03682 15.7185 0.691989L15.0838 1.93986ZM6.14599 0.3C5.34439 0.3 4.70117 0.299458 4.18191 0.341807C3.65452 0.38482 3.19372 0.475528 2.76813 0.691989L3.40281 1.93986C3.59837 1.8404 3.8547 1.77314 4.29571 1.73717C4.74487 1.70054 5.32133 1.7 6.14599 1.7V0.3ZM2.2 5.63768C2.2 4.81444 2.20055 4.23918 2.23723 3.79102C2.27324 3.35107 2.34054 3.09566 2.43996 2.90088L1.19301 2.26439C0.975948 2.68965 0.885007 3.15009 0.841894 3.67682C0.799454 4.19533 0.8 4.83758 0.8 5.63768H2.2ZM2.76813 0.691989C2.09014 1.03682 1.53869 1.58718 1.19301 2.26439L2.43996 2.90088C2.65107 2.4873 2.98805 2.15081 3.40281 1.93986L2.76813 0.691989ZM10.066 8.99565H5.37165V10.3957H10.066V8.99565ZM7.30748 12.8604H5.37165V14.2604H7.30748V12.8604ZM13.115 5.13092H5.37165V6.53092H13.115V5.13092Z" fill="white" fill-opacity="0.66"/>
</svg>
