<svg width="17" height="22" viewBox="0 0 17 22" fill="none" xmlns="http://www.w3.org/2000/svg">
<path fill-rule="evenodd" clip-rule="evenodd" d="M8.5 0.714844C12.9183 0.714844 16.5 2.76056 16.5 5.28627C16.5 7.81199 12.9183 9.8577 8.5 9.8577C4.08171 9.8577 0.5 7.81199 0.5 5.28627C0.5 2.76056 4.08171 0.714844 8.5 0.714844ZM15.0074 10.0063C15.3645 9.80313 15.7122 9.5715 16.0394 9.31312C16.2205 9.17013 16.5 9.29439 16.5 9.52512V11.0006C16.5 13.5263 12.9183 15.572 8.5 15.572C4.08171 15.572 0.5 13.5263 0.5 11.0006V9.52183C0.5 9.29159 0.777868 9.16777 0.958232 9.31087C1.28412 9.56942 1.62993 9.80235 1.99257 10.0074C3.74343 11.0074 6.04743 11.572 8.5 11.572C10.9526 11.572 13.2566 11.0074 15.0074 10.0063ZM0.957959 15.0252C0.777563 14.8824 0.5 15.0063 0.5 15.2364V16.7148C0.5 19.2406 4.08171 21.2863 8.5 21.2863C12.9183 21.2863 16.5 19.2406 16.5 16.7148V15.2361C16.5 15.0059 16.2221 14.8821 16.0418 15.0252C15.7159 15.2837 15.3701 15.5166 15.0074 15.7217C13.2566 16.7217 10.9526 17.2863 8.5 17.2863C6.04743 17.2863 3.74343 16.7217 1.99257 15.7206C1.62987 15.5159 1.28398 15.2834 0.957959 15.0252Z" fill="white" fill-opacity="0.66"/>
</svg>
