<svg width="15" height="22" viewBox="0 0 15 22" fill="none" xmlns="http://www.w3.org/2000/svg">
<path d="M2.0212 20.386C-0.225493 15.7321 1.61966 10.4263 3.85252 6.70632C3.93001 6.57723 3.91177 6.41269 3.80719 6.30438L3.34667 5.82741C3.33578 5.81613 3.32375 5.80541 3.31144 5.7957C2.0244 4.78048 2.35639 3.43607 3.98487 3.09874L11.8395 1.06495C13.4759 0.725981 14.4577 1.74288 14.1305 3.43771L12.1668 11.5729C11.8395 12.9288 10.5304 13.2677 9.54858 12.2508L8.82903 11.5056C8.69024 11.3618 8.45604 11.3738 8.33417 11.5322C5.59148 15.0959 4.63749 18.0196 4.00055 19.9983C3.99004 20.031 3.98524 20.065 3.9837 20.0993C3.93969 21.0753 2.66441 21.3853 2.0212 20.386Z" stroke="white" stroke-opacity="0.66" stroke-width="1.4" stroke-linejoin="round"/>
</svg>
