<svg width="20" height="18" viewBox="0 0 20 18" fill="none" xmlns="http://www.w3.org/2000/svg">
<path d="M9.22163 0.824926C9.45246 0.357279 9.56788 0.123456 9.72456 0.0487489C9.86089 -0.0162496 10.0193 -0.0162496 10.1556 0.0487489C10.3123 0.123456 10.4277 0.357279 10.6585 0.824925L12.8485 5.2616C12.9167 5.39966 12.9507 5.46869 13.0005 5.52229C13.0446 5.56975 13.0975 5.6082 13.1562 5.63551C13.2226 5.66636 13.2988 5.67749 13.4511 5.69976L18.3498 6.41577C18.8656 6.49117 19.1236 6.52887 19.2429 6.65487C19.3468 6.76449 19.3956 6.91512 19.3758 7.06482C19.3531 7.23689 19.1664 7.41876 18.7929 7.78252L15.2495 11.2338C15.1391 11.3414 15.0839 11.3952 15.0482 11.4592C15.0167 11.5158 14.9964 11.5781 14.9886 11.6425C14.9798 11.7152 14.9928 11.7912 15.0189 11.9432L15.855 16.8179C15.9432 17.3321 15.9872 17.5891 15.9044 17.7417C15.8323 17.8744 15.7041 17.9675 15.5556 17.9951C15.3849 18.0267 15.1541 17.9053 14.6924 17.6625L10.313 15.3594C10.1766 15.2877 10.1083 15.2518 10.0364 15.2377C9.97281 15.2252 9.90735 15.2252 9.84371 15.2377C9.77183 15.2518 9.7036 15.2877 9.56715 15.3594L5.1878 17.6625C4.72609 17.9053 4.49524 18.0267 4.32454 17.9951C4.17602 17.9675 4.04787 17.8744 3.97578 17.7417C3.89291 17.5891 3.93701 17.3321 4.02519 16.8179L4.86126 11.9432C4.88733 11.7912 4.90036 11.7152 4.89154 11.6425C4.88374 11.5781 4.86349 11.5158 4.83194 11.4592C4.7963 11.3952 4.74107 11.3414 4.63062 11.2338L1.08723 7.78252C0.713768 7.41876 0.527037 7.23689 0.504314 7.06482C0.484544 6.91512 0.533385 6.76449 0.63724 6.65487C0.756605 6.52887 1.01453 6.49117 1.53038 6.41577L6.42906 5.69976C6.58141 5.67749 6.65758 5.66636 6.72391 5.63551C6.78265 5.6082 6.83553 5.56975 6.87962 5.52229C6.92941 5.46869 6.96349 5.39966 7.03164 5.2616L9.22163 0.824926Z" fill="white" fill-opacity="0.66"/>
</svg>
