<svg width="25" height="24" viewBox="0 0 25 24" fill="none" xmlns="http://www.w3.org/2000/svg">
<path fill-rule="evenodd" clip-rule="evenodd" d="M21.6519 2.56514C21.6599 2.80341 21.671 3.13265 21.6755 3.53229C21.6775 3.71898 21.8323 3.86742 22.0188 3.87405C22.5084 3.89144 23.0633 3.98522 23.5487 4.22203C23.9239 4.4051 24.2768 4.68365 24.5085 5.09611C24.7421 5.51184 24.8264 6.01732 24.7425 6.60506C24.5401 8.02186 23.6342 9.10232 22.8271 9.95418C22.6768 10.1128 22.5328 10.2606 22.3954 10.4017C22.1463 10.6573 21.9191 10.8904 21.7164 11.1246C21.4028 11.4869 21.2249 11.769 21.1659 12.0056C21.0976 12.2789 21.1349 12.4201 21.1689 12.4893C21.2042 12.5612 21.2711 12.6265 21.3883 12.6828C21.6462 12.8065 21.9859 12.8119 22.1087 12.8119C22.3845 12.8119 22.608 13.0355 22.608 13.3113C22.608 13.5871 22.3845 13.8106 22.1087 13.8106L22.101 13.8106C21.9708 13.8108 21.4316 13.8113 20.9562 13.5831C20.7018 13.4611 20.4342 13.2588 20.2724 12.9295C20.199 12.78 19.8474 12.7163 19.7653 12.8612C18.659 14.8128 16.925 16.3895 14.2166 16.8763C14.0556 16.9053 13.9355 17.0435 13.9355 17.2071V20.6917C13.9355 20.8601 14.0627 21.0011 14.2297 21.0228C16.7505 21.3506 18.5806 22.2745 18.5806 22.8089C18.5806 23.4667 15.8077 24 12.3871 24C8.96649 24 6.19355 23.4667 6.19355 22.8089C6.19355 22.2745 8.02374 21.3506 10.5445 21.0228C10.7115 21.0011 10.8387 20.8601 10.8387 20.6917V17.2071C10.8387 17.0435 10.7186 16.9053 10.5576 16.8763C7.8492 16.3895 6.11526 14.8128 5.00898 12.8612C4.92683 12.7162 4.57519 12.78 4.50174 12.9295C4.34003 13.2588 4.0724 13.4611 3.81797 13.5831C3.34264 13.8113 2.80336 13.8108 2.67323 13.8106L2.66552 13.8106C2.38974 13.8106 2.16618 13.5871 2.16618 13.3113C2.16618 13.0355 2.38974 12.8119 2.66552 12.8119C2.78832 12.8119 3.12803 12.8065 3.3859 12.6828C3.5031 12.6265 3.56998 12.5612 3.60532 12.4893C3.63929 12.4201 3.6766 12.2789 3.60833 12.0056C3.54925 11.769 3.37135 11.4869 3.05779 11.1246C2.85506 10.8904 2.62788 10.6573 2.37882 10.4017C2.24142 10.2606 2.09736 10.1128 1.94707 9.95418C1.14 9.10232 0.234113 8.02186 0.0317123 6.60506C-0.05225 6.01732 0.0321239 5.51184 0.265688 5.09611C0.497408 4.68365 0.850301 4.4051 1.22551 4.22203C1.71086 3.98522 2.26579 3.89144 2.75536 3.87405C2.94194 3.86742 3.09667 3.71898 3.09875 3.53229C3.10319 3.13246 3.11425 2.80344 3.12226 2.56514C3.12745 2.41075 3.13137 2.2944 3.13137 2.2216C3.13137 0.994644 7.2753 0 12.3871 0C17.4989 0 21.6428 0.994644 21.6428 2.2216C21.6428 2.29438 21.6467 2.41082 21.6519 2.56514ZM3.12506 5.17754C3.11742 5.00597 2.98107 4.8661 2.80942 4.87141C2.42235 4.8834 2.00138 4.9547 1.66345 5.11958C1.42339 5.23671 1.24573 5.39063 1.13638 5.58527C1.02887 5.77663 0.96166 6.05286 1.02037 6.46382C1.17464 7.54375 1.87399 8.42497 2.67205 9.26731C2.79922 9.40153 2.9319 9.53781 3.0646 9.67411C3.3283 9.94498 3.59212 10.216 3.81289 10.471C3.86677 10.5332 3.98639 10.4686 3.96208 10.39C3.39984 8.57047 3.19217 6.68598 3.12506 5.17754ZM20.9613 10.471C20.9074 10.5332 20.7878 10.4686 20.8121 10.39C21.3744 8.57049 21.5821 6.68599 21.6492 5.17755C21.6568 5.00598 21.7931 4.8661 21.9648 4.87142C22.3519 4.88341 22.7728 4.9547 23.1107 5.11958C23.3508 5.23671 23.5285 5.39063 23.6378 5.58527C23.7453 5.77663 23.8125 6.05286 23.7538 6.46382C23.5995 7.54375 22.9002 8.42497 22.1021 9.26731C21.975 9.40153 21.8423 9.53781 21.7096 9.67411C21.4459 9.94499 21.1821 10.2159 20.9613 10.471ZM13.3602 7.10125C13.3576 7.28535 13.5061 7.43601 13.6902 7.43601H15.2466C15.5125 7.43601 15.656 7.73074 15.4753 7.96653L12.0991 12.5939C11.918 12.8591 11.506 12.7412 11.5106 12.417L11.5525 9.5097C11.5552 9.32561 11.4067 9.17495 11.2226 9.17495H9.66621C9.40027 9.17495 9.2572 8.85074 9.40792 8.64442L12.8137 4.01707C12.9948 3.75181 13.4068 3.86971 13.4021 4.19392L13.3602 7.10125Z" fill="white" fill-opacity="0.66"/>
</svg>
