<svg width="20" height="18" viewBox="0 0 20 18" fill="none" xmlns="http://www.w3.org/2000/svg">
<path d="M16.5227 1.01911C17.022 1.40265 17.3806 1.94036 17.5429 2.54869L19.3337 9.26317C19.4042 9.52723 19.0792 9.74929 18.8399 9.61741C18.1054 9.21281 17.2764 8.99784 16.4286 8.99916H3.57143C2.72391 8.998 1.89511 9.213 1.16094 9.6175C0.921581 9.74937 0.59669 9.52736 0.667085 9.26331L2.45714 2.54869C2.61941 1.9402 2.97816 1.40237 3.47763 1.01882C3.9771 0.635258 4.5893 0.427463 5.21905 0.427735H14.7819C15.4115 0.427673 16.0235 0.635564 16.5227 1.01911Z" fill="white" fill-opacity="0.66"/>
<path fill-rule="evenodd" clip-rule="evenodd" d="M17.7953 10.6996C17.362 10.5201 16.8976 10.4277 16.4286 10.4277H3.57143C3.10242 10.4277 2.63801 10.5201 2.2047 10.6996C1.7714 10.8791 1.37768 11.1421 1.04605 11.4738C0.714409 11.8054 0.45134 12.1991 0.271859 12.6324C0.0923778 13.0657 0 13.5302 0 13.9992C0 14.4682 0.0923778 14.9326 0.271859 15.3659C0.45134 15.7992 0.714409 16.1929 1.04605 16.5245C1.37768 16.8562 1.7714 17.1193 2.2047 17.2987C2.63801 17.4782 3.10242 17.5706 3.57143 17.5706H16.4286C16.8976 17.5706 17.362 17.4782 17.7953 17.2987C18.2286 17.1193 18.6223 16.8562 18.954 16.5245C19.2856 16.1929 19.5487 15.7992 19.7281 15.3659C19.9076 14.9326 20 14.4682 20 13.9992C20 13.5302 19.9076 13.0657 19.7281 12.6324C19.5487 12.1991 19.2856 11.8054 18.954 11.4738C18.6223 11.1421 18.2286 10.8791 17.7953 10.6996ZM3.42857 14.9992C3.90196 14.9992 4.28571 14.6154 4.28571 14.142C4.28571 13.6686 3.90196 13.2849 3.42857 13.2849C2.95518 13.2849 2.57143 13.6686 2.57143 14.142C2.57143 14.6154 2.95518 14.9992 3.42857 14.9992Z" fill="white" fill-opacity="0.66"/>
</svg>
