<svg width="21" height="26" viewBox="0 0 21 26" fill="none" xmlns="http://www.w3.org/2000/svg">
<path fill-rule="evenodd" clip-rule="evenodd" d="M10.2379 25.3567C10.0426 25.3147 9.90425 25.234 9.62751 25.0724C7.19245 23.6506 0.5 19.1846 0.5 13.0441V7.06132C0.5 6.06112 0.5 5.56103 0.66345 5.13114C0.807843 4.75138 1.04248 4.41253 1.34707 4.14388C1.69187 3.83978 2.15975 3.66418 3.09551 3.31299L9.79775 0.797626C10.0576 0.700097 10.1876 0.651332 10.3212 0.632001C10.4398 0.614854 10.5602 0.614854 10.6788 0.632001C10.8124 0.651332 10.9424 0.700097 11.2022 0.797626L17.9045 3.31299C18.8403 3.66418 19.3081 3.83978 19.6529 4.14388C19.9575 4.41253 20.1922 4.75138 20.3366 5.13114C20.5 5.56102 20.5 6.06111 20.5 7.06128V13.0441C20.5 19.1846 13.8075 23.6506 11.3725 25.0724C11.0958 25.2339 10.9574 25.3147 10.7621 25.3567C10.6106 25.3892 10.3894 25.3892 10.2379 25.3567ZM15.4824 10.6913C15.8233 10.348 15.8233 9.79138 15.4824 9.44806C15.1415 9.10474 14.5887 9.10474 14.2478 9.44806L9.04497 14.6872L6.75224 12.3785C6.4113 12.0351 5.85854 12.0351 5.51761 12.3785C5.17667 12.7218 5.17667 13.2784 5.51761 13.6217L8.42766 16.5521C8.59138 16.717 8.81344 16.8096 9.04497 16.8096C9.27651 16.8096 9.49857 16.717 9.66229 16.5521L15.4824 10.6913Z" fill="white" fill-opacity="0.66"/>
</svg>
