<svg width="16" height="16" viewBox="0 0 16 16" fill="none" xmlns="http://www.w3.org/2000/svg">
<path d="M3.17857 0C3.88897 0 4.57028 0.280952 5.07261 0.781049C5.57494 1.28115 5.85714 1.95942 5.85714 2.66667V13.3333C5.85714 14.0406 5.57494 14.7189 5.07261 15.219C4.57028 15.719 3.88897 16 3.17857 16C2.46817 16 1.78686 15.719 1.28454 15.219C0.782206 14.7189 0.5 14.0406 0.5 13.3333V2.66667C0.5 1.95942 0.782206 1.28115 1.28454 0.781049C1.78686 0.280952 2.46817 0 3.17857 0ZM12.6786 0C13.389 0 14.0703 0.280952 14.5726 0.781049C15.0749 1.28115 15.3571 1.95942 15.3571 2.66667V13.3333C15.3571 14.0406 15.0749 14.7189 14.5726 15.219C14.0703 15.719 13.389 16 12.6786 16C11.9682 16 11.2869 15.719 10.7845 15.219C10.2822 14.7189 10 14.0406 10 13.3333V2.66667C10 1.95942 10.2822 1.28115 10.7845 0.781049C11.2869 0.280952 11.9682 0 12.6786 0Z" fill="white" fill-opacity="0.66"/>
</svg>
