<svg width="21" height="20" viewBox="0 0 21 20" fill="none" xmlns="http://www.w3.org/2000/svg">
<path d="M10.243 0.00293764C7.42654 0.0773353 4.9151 1.31087 3.14642 3.24634C3.01677 3.38822 2.79431 3.39796 2.6579 3.26258L1.44432 2.05819C1.366 1.98142 1.26671 1.92955 1.15896 1.90912C1.05121 1.88869 0.939827 1.90061 0.838843 1.94338C0.737858 1.98615 0.651794 2.05785 0.591496 2.14946C0.531198 2.24106 0.499365 2.34847 0.50001 2.45813V7.2241C0.50001 7.53516 0.744418 7.77957 1.05548 7.77957H5.82145C6.32138 7.77957 6.56579 7.17966 6.21028 6.83527L4.69857 5.3138C4.57917 5.19363 4.56961 5.00206 4.68191 4.87524C6.11187 3.26034 8.18338 2.22483 10.4985 2.22483C15.2978 2.22483 19.0973 6.60197 18.1196 11.5679C17.5197 14.6452 14.9979 17.1004 11.9206 17.6448C7.69895 18.4002 3.94395 15.7117 2.97742 11.9123C2.84411 11.4457 2.39973 11.1124 1.91091 11.1124C1.1888 11.1124 0.644433 11.7901 0.822184 12.4789C1.92202 16.8005 5.83256 20 10.4985 20C16.1199 20 20.6526 15.3673 20.4971 9.71262C20.3415 4.2912 15.6644 -0.130376 10.243 0.00293764ZM12.7204 10.0015C12.7204 8.77943 11.7206 7.77957 10.4985 7.77957C9.2765 7.77957 8.27665 8.77943 8.27665 10.0015C8.27665 11.2235 9.2765 12.2234 10.4985 12.2234C11.7206 12.2234 12.7204 11.2235 12.7204 10.0015Z" fill="white" fill-opacity="0.66"/>
</svg>
