<svg width="19" height="16" viewBox="0 0 19 16" fill="none" xmlns="http://www.w3.org/2000/svg">
<path fill-rule="evenodd" clip-rule="evenodd" d="M7.17982 1.1103C8.06577 -0.370099 10.2138 -0.370099 11.1009 1.1103L17.9518 12.5385C18.8652 14.0623 17.7678 16 15.9902 16H2.29051C0.512887 16 -0.58455 14.0623 0.328837 12.5385L7.17982 1.1103ZM9.14034 4.56837C9.36773 4.56837 9.58581 4.6587 9.7466 4.81949C9.90738 4.98027 9.99771 5.19835 9.99771 5.42574V8.85523C9.99771 9.08262 9.90738 9.30069 9.7466 9.46148C9.58581 9.62227 9.36773 9.7126 9.14034 9.7126C8.91295 9.7126 8.69488 9.62227 8.53409 9.46148C8.3733 9.30069 8.28297 9.08262 8.28297 8.85523V5.42574C8.28297 5.19835 8.3733 4.98027 8.53409 4.81949C8.69488 4.6587 8.91295 4.56837 9.14034 4.56837ZM10.2835 11.9989C10.2835 12.3021 10.1631 12.5929 9.94868 12.8073C9.73429 13.0217 9.44353 13.1421 9.14034 13.1421C8.83716 13.1421 8.54639 13.0217 8.332 12.8073C8.11762 12.5929 7.99718 12.3021 7.99718 11.9989C7.99718 11.6957 8.11762 11.405 8.332 11.1906C8.54639 10.9762 8.83716 10.8558 9.14034 10.8558C9.44353 10.8558 9.73429 10.9762 9.94868 11.1906C10.1631 11.405 10.2835 11.6957 10.2835 11.9989Z" fill="white" fill-opacity="0.66"/>
</svg>
