<svg width="25" height="16" viewBox="0 0 25 16" fill="none" xmlns="http://www.w3.org/2000/svg">
<path d="M0.5 3.90386V12.0978C0.5 13.887 1.95278 15.3337 3.73628 15.3337H13.5956C14.4537 15.3335 15.2767 14.9925 15.8836 14.3857C16.4904 13.7789 16.8315 12.956 16.8318 12.0978V3.90386C16.8318 2.11471 15.3791 0.667985 13.5956 0.667985H3.74152C1.95278 0.662339 0.5 2.11471 0.5 3.90386ZM22.3801 1.71098L18.6671 4.77302C18.5042 4.90753 18.3731 5.07631 18.2829 5.26733C18.1928 5.45835 18.1459 5.66691 18.1456 5.87813V10.1179C18.1451 10.3273 18.1905 10.5343 18.2786 10.7243C18.3668 10.9142 18.4955 11.0825 18.6558 11.2173L22.3688 14.3355C23.2158 15.0421 24.5 14.4419 24.5 13.3429V2.70921C24.5056 1.6158 23.2267 1.01 22.3801 1.71098Z" fill="white" fill-opacity="0.66"/>
</svg>
