<svg width="24" height="16" viewBox="0 0 24 16" fill="none" xmlns="http://www.w3.org/2000/svg">
<path d="M9.61296 6.5841H6.53162L6.60776 1.30161C6.61537 0.773357 5.9441 0.581266 5.64899 1.01347L0.0998095 8.55302C-0.145766 8.88918 0.0873501 9.41743 0.520665 9.41743H3.60201L3.52587 14.6999C3.51826 15.2282 4.18953 15.4203 4.48464 14.9881L9.98567 7.4485C10.2801 7.06432 10.0463 6.5841 9.61296 6.5841Z" fill="white" fill-opacity="0.66"/>
<path d="M10.8669 1.97962C10.8669 1.31454 11.406 0.775391 12.0711 0.775391L22.7958 0.775391C23.4608 0.775391 24 1.31454 24 1.97962C24 2.6447 23.4608 3.18385 22.7958 3.18385L12.0711 3.18385C11.406 3.18385 10.8669 2.6447 10.8669 1.97962Z" fill="white" fill-opacity="0.66"/>
<path d="M13.757 8.00076C13.757 7.33569 14.2962 6.79653 14.9612 6.79653H22.7887C23.4538 6.79653 23.9929 7.33569 23.9929 8.00076C23.9929 8.66584 23.4538 9.20499 22.7887 9.20499H14.9612C14.2962 9.20499 13.757 8.66584 13.757 8.00076Z" fill="white" fill-opacity="0.66"/>
<path d="M10.1443 14.0219C10.1443 13.3568 10.6835 12.8177 11.3485 12.8177H19.1831C19.8482 12.8177 20.3873 13.3568 20.3873 14.0219C20.3873 14.687 19.8482 15.2261 19.1831 15.2261H11.3485C10.6835 15.2261 10.1443 14.687 10.1443 14.0219Z" fill="white" fill-opacity="0.66"/>
</svg>
