<svg width="27" height="16" viewBox="0 0 27 16" fill="none" xmlns="http://www.w3.org/2000/svg">
<path d="M3.48735 15.5364C3.44225 15.6708 3.31629 15.7614 3.17447 15.7614H0.830273C0.602699 15.7614 0.443429 15.5365 0.519 15.3218L5.83547 0.220417C5.88196 0.0883514 6.00673 0 6.14674 0H9.20427C9.34423 0 9.46896 0.0882853 9.5155 0.220281L14.8393 15.3217C14.915 15.5364 14.7557 15.7614 14.5281 15.7614H12.184C12.0422 15.7614 11.9163 15.6709 11.8712 15.5365L7.75662 3.29067C7.74491 3.25581 7.71224 3.23232 7.67547 3.23232C7.63868 3.23232 7.606 3.25583 7.5943 3.29071L3.48735 15.5364ZM3.51191 9.91153C3.51191 9.72928 3.65966 9.58153 3.84191 9.58153H11.4936C11.6759 9.58153 11.8236 9.72928 11.8236 9.91153V11.5449C11.8236 11.7272 11.6759 11.8749 11.4936 11.8749H3.84191C3.65966 11.8749 3.51191 11.7272 3.51191 11.5449V9.91153Z" fill="white" fill-opacity="0.66"/>
<path d="M20.3489 16C19.5998 16 18.9251 15.8666 18.3248 15.5998C17.7296 15.3279 17.2576 14.9277 16.9087 14.3992C16.565 13.8708 16.3931 13.2192 16.3931 12.4444C16.3931 11.7775 16.5162 11.2259 16.7625 10.7898C17.0088 10.3537 17.3448 10.0048 17.7707 9.74315C18.1965 9.48148 18.6763 9.28395 19.2098 9.15055C19.7486 9.01202 20.3052 8.91198 20.8799 8.85041C21.5725 8.77858 22.1343 8.71445 22.5653 8.65801C22.9963 8.59644 23.3093 8.50409 23.5042 8.38095C23.7043 8.25269 23.8044 8.05515 23.8044 7.78836V7.74218C23.8044 7.16242 23.6325 6.71348 23.2887 6.39538C22.945 6.07728 22.4499 5.91823 21.8034 5.91823C21.121 5.91823 20.5797 6.06702 20.1795 6.3646C19.8686 6.59885 19.6371 6.86647 19.485 7.16748C19.4136 7.30891 19.2657 7.40283 19.1088 7.38056L17.1528 7.10279C16.9546 7.07464 16.826 6.87735 16.8956 6.68962C17.1035 6.12838 17.4029 5.64807 17.7938 5.24868C18.2658 4.76126 18.843 4.39699 19.5254 4.15584C20.2078 3.90957 20.962 3.78644 21.788 3.78644C22.3575 3.78644 22.9245 3.85313 23.4888 3.98653C24.0532 4.11993 24.5688 4.34055 25.0357 4.64839C25.5026 4.9511 25.8772 5.36412 26.1593 5.88745C26.4467 6.41077 26.5903 7.06493 26.5903 7.84993V15.4314C26.5903 15.6137 26.4426 15.7614 26.2603 15.7614H24.2421C24.0598 15.7614 23.9121 15.6137 23.9121 15.4314V14.1949C23.9121 14.1633 23.8864 14.1376 23.8547 14.1376C23.8332 14.1376 23.8136 14.1496 23.8035 14.1686C23.6353 14.4853 23.4022 14.7828 23.104 15.0611C22.8013 15.3433 22.4191 15.5716 21.9573 15.746C21.5007 15.9153 20.9645 16 20.3489 16ZM21.0723 13.9529C21.6315 13.9529 22.1164 13.8426 22.5268 13.6219C22.9373 13.3962 23.2528 13.0986 23.4734 12.7292C23.6992 12.3598 23.8121 11.957 23.8121 11.5209V10.62C23.8121 10.4238 23.554 10.2729 23.3657 10.328C23.1605 10.3896 22.9296 10.4435 22.673 10.4897C22.4165 10.5358 22.1625 10.5769 21.9111 10.6128C21.6597 10.6487 21.4417 10.6795 21.257 10.7051C20.8414 10.7616 20.4694 10.8539 20.1411 10.9822C19.8127 11.1105 19.5536 11.29 19.3638 11.5209C19.1739 11.7467 19.079 12.0391 19.079 12.3983C19.079 12.9113 19.2663 13.2987 19.6408 13.5604C20.0154 13.822 20.4925 13.9529 21.0723 13.9529Z" fill="white" fill-opacity="0.66"/>
</svg>
