<svg width="24" height="12" viewBox="0 0 24 12" fill="none" xmlns="http://www.w3.org/2000/svg">
<path d="M8.03648 4.10741C7.88936 4.10741 7.76221 4.00908 7.70859 3.87209C7.64594 3.71203 7.56959 3.56566 7.47956 3.43298C7.34712 3.23432 7.18504 3.06702 6.99335 2.93108C6.80513 2.79167 6.58904 2.68536 6.34506 2.61217C6.10456 2.53897 5.83793 2.50238 5.54515 2.50238C4.99794 2.50238 4.51695 2.63831 4.10219 2.91017C3.69091 3.18203 3.37025 3.57763 3.14021 4.09696C2.91017 4.6128 2.79515 5.24366 2.79515 5.98954C2.79515 6.73542 2.90843 7.36977 3.13498 7.89259C3.36153 8.4154 3.68219 8.81448 4.09696 9.08983C4.51172 9.36169 5.00143 9.49762 5.56606 9.49762C6.07842 9.49762 6.51584 9.407 6.87833 9.22576C7.2443 9.04103 7.52313 8.78137 7.71483 8.44677C7.90479 8.12112 8.00231 7.73769 8.00739 7.29648C8.00762 7.27726 8.02468 7.2625 8.04369 7.26531V7.26531C8.08228 7.27101 8.0781 7.32795 8.03909 7.32795H5.89614C5.79181 7.32795 5.70722 7.24337 5.70722 7.13903V5.95357C5.70722 5.77132 5.85497 5.62357 6.03722 5.62357H9.85774C10.04 5.62357 10.1877 5.77132 10.1877 5.95357V6.97243C10.1877 7.9135 9.98907 8.72212 9.59173 9.39829C9.19439 10.071 8.64718 10.5903 7.95009 10.9563C7.25301 11.3188 6.45485 11.5 5.55561 11.5C4.55181 11.5 3.66999 11.2787 2.91017 10.836C2.15035 10.3899 1.55783 9.75729 1.1326 8.93821C0.710868 8.11565 0.5 7.13973 0.5 6.01046C0.5 5.14259 0.625475 4.36882 0.876426 3.68916C1.13086 3.00602 1.48638 2.42744 1.94297 1.95342C2.39956 1.4794 2.93108 1.11866 3.53755 0.871198C4.14401 0.623733 4.80101 0.5 5.50855 0.5C6.11502 0.5 6.67966 0.588878 7.20247 0.766635C7.72529 0.940906 8.18885 1.18837 8.59316 1.50903C9.00095 1.82969 9.33381 2.21134 9.59173 2.65399C9.78796 2.98811 9.93072 3.34845 10.02 3.73502C10.0651 3.93009 9.90989 4.10741 9.70968 4.10741H8.03648Z" fill="white" fill-opacity="0.66"/>
<path d="M13.822 0.646388C14.0042 0.646388 14.152 0.794134 14.152 0.976388V11.0236C14.152 11.2059 14.0042 11.3536 13.822 11.3536H12.2182C12.0359 11.3536 11.8882 11.2059 11.8882 11.0236V0.976388C11.8882 0.794134 12.0359 0.646388 12.2182 0.646388H13.822Z" fill="white" fill-opacity="0.66"/>
<path d="M16.3445 11.3536C16.1622 11.3536 16.0145 11.2059 16.0145 11.0236V0.976388C16.0145 0.794134 16.1622 0.646388 16.3445 0.646388H22.7738C22.9561 0.646388 23.1038 0.794134 23.1038 0.976388V2.18283C23.1038 2.36509 22.9561 2.51283 22.7738 2.51283H18.6083C18.426 2.51283 18.2783 2.66058 18.2783 2.84283V4.73416C18.2783 4.91642 18.426 5.06416 18.6083 5.06416H22.3033C22.4856 5.06416 22.6333 5.21191 22.6333 5.39416V6.60061C22.6333 6.78286 22.4856 6.93061 22.3033 6.93061H18.6083C18.426 6.93061 18.2783 7.07835 18.2783 7.26061V11.0236C18.2783 11.2059 18.1305 11.3536 17.9483 11.3536H16.3445Z" fill="white" fill-opacity="0.66"/>
</svg>
