<svg width="20" height="18" viewBox="0 0 20 18" fill="none" xmlns="http://www.w3.org/2000/svg">
<path fill-rule="evenodd" clip-rule="evenodd" d="M10.3424 1.84004C10.2081 1.97442 10.141 2.04162 10.0782 2.06204C10.0174 2.08181 9.969 2.08182 9.90819 2.06207C9.84539 2.04168 9.7782 1.9745 9.6438 1.84014C7.62168 -0.181494 4.51896 -0.628039 2.15469 1.39204C-0.350356 3.53242 -0.703032 7.11101 1.2642 9.64243C2.89982 11.7471 7.84977 16.1861 9.4721 17.6229C9.6536 17.7836 9.74436 17.864 9.85021 17.8956C9.9426 17.9231 10.0437 17.9231 10.1361 17.8956C10.2419 17.864 10.3327 17.7836 10.5142 17.6229C12.1365 16.1861 17.0865 11.7471 18.7221 9.64243C20.6893 7.11101 20.3797 3.5099 17.8316 1.39204C15.4268 -0.60669 12.3604 -0.179149 10.3424 1.84004Z" fill="white" fill-opacity="0.66"/>
</svg>
