<svg width="25" height="24" viewBox="0 0 25 24" fill="none" xmlns="http://www.w3.org/2000/svg">
<path d="M23.4707 8.08C23.2082 8.08 22.9564 7.97581 22.7707 7.79031C22.5849 7.60481 22.4804 7.35318 22.48 7.09067V4.652C22.4802 4.30545 22.412 3.96227 22.2794 3.64211C22.1467 3.32196 21.9522 3.03112 21.7069 2.78626C21.4617 2.5414 21.1706 2.34732 20.8502 2.21515C20.5299 2.08297 20.1866 2.0153 19.84 2.016H16.1707C15.9084 2.016 15.6568 1.91199 15.4711 1.72678C15.2854 1.54157 15.1807 1.29028 15.18 1.028C15.1799 0.898092 15.2053 0.769429 15.255 0.649392C15.3047 0.529356 15.3776 0.420311 15.4695 0.328514C15.5614 0.236717 15.6706 0.163976 15.7907 0.114465C15.9108 0.0649546 16.0395 0.0396487 16.1694 0.04H19.84C21.0734 0.0463971 22.2547 0.538347 23.128 1.40933C24.0005 2.28027 24.4936 3.46058 24.5 4.69333V7.132C24.4862 7.39313 24.3708 7.6385 24.1784 7.81565C23.9861 7.9928 23.7321 8.08768 23.4707 8.08ZM19.84 23.9333H16.1707C15.9756 23.9326 15.7851 23.8743 15.623 23.7657C15.4609 23.6572 15.3345 23.5032 15.2596 23.323C15.1847 23.1429 15.1646 22.9447 15.202 22.7532C15.2393 22.5617 15.3323 22.3855 15.4694 22.2467C15.6552 22.0613 15.9069 21.9572 16.1694 21.9573H19.84C20.5393 21.9566 21.2098 21.6788 21.7046 21.1847C22.1994 20.6907 22.4783 20.0206 22.48 19.3213V16.9093C22.4792 16.7131 22.5369 16.521 22.6456 16.3577C22.7544 16.1943 22.9093 16.0671 23.0907 15.9921C23.2721 15.9172 23.4716 15.8979 23.664 15.9368C23.8563 15.9758 24.0327 16.0711 24.1707 16.2107C24.2625 16.3024 24.3353 16.4113 24.385 16.5312C24.4346 16.6511 24.4601 16.7796 24.46 16.9093V19.348C24.4525 20.58 23.959 21.7593 23.0867 22.6293C22.2142 23.5002 21.034 23.9925 19.8014 24L19.84 23.9333ZM8.81736 23.9333H5.14669C3.91355 23.9302 2.73183 23.4388 1.86003 22.5667C0.989178 21.6951 0.500009 20.5134 0.500028 19.2813V16.9093C0.498555 16.7128 0.555812 16.5203 0.664459 16.3565C0.773107 16.1927 0.928193 16.0651 1.10984 15.9901C1.29148 15.915 1.4914 15.8959 1.68398 15.9352C1.87655 15.9745 2.05299 16.0704 2.19069 16.2107C2.2825 16.3024 2.3553 16.4113 2.40495 16.5312C2.4546 16.6511 2.48011 16.7796 2.48003 16.9093V19.348C2.47968 19.6946 2.54775 20.0379 2.68035 20.3581C2.81294 20.6783 3.00745 20.9692 3.25272 21.2141C3.49799 21.459 3.7892 21.6531 4.10963 21.7852C4.43007 21.9173 4.77343 21.9849 5.12003 21.984H8.7907C9.05274 21.9844 9.30398 22.0885 9.4894 22.2737C9.67482 22.4589 9.77932 22.71 9.78003 22.972C9.7802 23.1019 9.75472 23.2306 9.70505 23.3506C9.65538 23.4706 9.58249 23.5797 9.49057 23.6715C9.39865 23.7633 9.28951 23.836 9.1694 23.8855C9.0493 23.935 8.9206 23.9604 8.7907 23.96L8.81736 23.9333ZM1.49069 8.08C1.22795 8.08 0.975973 7.97563 0.790187 7.78984C0.604401 7.60405 0.500028 7.35208 0.500028 7.08933V4.652C0.500028 3.42133 0.989361 2.23867 1.86003 1.36667C2.73183 0.494531 3.91355 0.00314822 5.14669 0H8.81736C9.07941 0.000351742 9.33065 0.104515 9.51607 0.289687C9.70149 0.474858 9.80599 0.725952 9.80669 0.988C9.80705 1.11802 9.7817 1.24683 9.7321 1.36702C9.68251 1.48721 9.60965 1.59641 9.51771 1.68835C9.42577 1.78029 9.31657 1.85315 9.19638 1.90274C9.07619 1.95234 8.94738 1.97769 8.81736 1.97733H5.14669C4.44743 1.97804 3.77695 2.25586 3.28212 2.74994C2.78729 3.24401 2.50846 3.91407 2.50669 4.61333V7.05067C2.51049 7.18568 2.4869 7.32007 2.43734 7.44572C2.38778 7.57137 2.31328 7.68568 2.21834 7.78174C2.12339 7.87781 2.00996 7.95365 1.88491 8.00468C1.75985 8.05571 1.62575 8.08088 1.49069 8.07867M18.744 11.9667C18.7432 13.4154 18.2394 14.8188 17.3187 15.9373C16.3974 17.0578 15.1162 17.8244 13.6933 18.1064C12.2704 18.3884 10.7937 18.1684 9.51469 17.484C8.55878 16.9757 7.75126 16.2279 7.17124 15.3138C6.59121 14.3996 6.25856 13.3505 6.20587 12.2692C6.15318 11.1878 6.38226 10.1113 6.87066 9.14511C7.35907 8.1789 8.09005 7.35611 8.99203 6.75733C9.76333 6.24307 10.6389 5.90597 11.556 5.77027C12.473 5.63456 13.4087 5.7036 14.2959 5.97243C15.1831 6.24126 15.9997 6.70322 16.6872 7.32512C17.3747 7.94702 17.9159 8.71344 18.272 9.56933C18.5867 10.3293 18.748 11.144 18.744 11.9667Z" fill="white" fill-opacity="0.66"/>
</svg>
