<svg width="21" height="18" viewBox="0 0 21 18" fill="none" xmlns="http://www.w3.org/2000/svg">
<path d="M8.25935 1.74941C6.75406 1.03072 4.65007 0.678667 1.83322 0.666168C1.56757 0.662559 1.30712 0.740024 1.08662 0.888233C0.90563 1.01057 0.757474 1.1755 0.655185 1.36853C0.552895 1.56156 0.499605 1.77677 0.500002 1.99522V13.9151C0.500002 14.7208 1.07329 15.3287 1.83322 15.3287C4.79423 15.3287 7.76439 15.6053 9.54341 17.2869C9.56775 17.31 9.59834 17.3254 9.63138 17.3313C9.66442 17.3372 9.69846 17.3332 9.72927 17.3199C9.76007 17.3066 9.78628 17.2845 9.80465 17.2564C9.82301 17.2283 9.83272 17.1954 9.83256 17.1619V3.1168C9.8326 3.02204 9.81232 2.92838 9.77308 2.84213C9.73383 2.75588 9.67654 2.67906 9.60507 2.61684C9.19757 2.26847 8.74491 1.97669 8.25935 1.74941ZM19.9117 0.886983C19.6911 0.739143 19.4306 0.66211 19.1651 0.666168C16.3483 0.678667 14.2443 1.02905 12.739 1.74941C12.2534 1.97627 11.8007 2.26748 11.3928 2.61517C11.3215 2.67748 11.2643 2.75433 11.2252 2.84057C11.186 2.9268 11.1658 3.02042 11.1658 3.11513V17.161C11.1658 17.1933 11.1753 17.2248 11.1931 17.2517C11.2109 17.2786 11.2363 17.2996 11.266 17.3121C11.2958 17.3246 11.3285 17.328 11.3602 17.322C11.3919 17.3159 11.421 17.3007 11.4441 17.2781C12.5136 16.2157 14.3905 15.3274 19.1668 15.3279C19.5204 15.3279 19.8595 15.1874 20.1095 14.9374C20.3595 14.6873 20.5 14.3482 20.5 13.9946V1.99564C20.5005 1.77675 20.4471 1.56111 20.3445 1.36776C20.2419 1.1744 20.0932 1.00929 19.9117 0.886983Z" fill="white" fill-opacity="0.66"/>
</svg>
