<svg width="20" height="12" viewBox="0 0 20 12" fill="none" xmlns="http://www.w3.org/2000/svg">
<path d="M2.9 4.8C1.58 4.8 0.5 3.72 0.5 2.4C0.5 1.08 1.58 -5.7699e-08 2.9 0C4.22 5.7699e-08 5.3 1.08 5.3 2.4C5.3 3.72 4.22 4.8 2.9 4.8ZM12.5 2.4C12.5 1.08 11.42 3.72422e-07 10.1 3.14723e-07C8.78 2.57024e-07 7.7 1.08 7.7 2.4C7.7 3.72 8.78 4.8 10.1 4.8C11.42 4.8 12.5 3.72 12.5 2.4ZM19.7 2.4C19.7 1.08 18.62 6.87141e-07 17.3 6.29442e-07C15.98 5.71743e-07 14.9 1.08 14.9 2.4C14.9 3.72 15.98 4.8 17.3 4.8C18.62 4.8 19.7 3.72 19.7 2.4ZM14.9 9.6C14.9 10.92 15.98 12 17.3 12C18.62 12 19.7 10.92 19.7 9.6C19.7 8.28 18.62 7.2 17.3 7.2C15.98 7.2 14.9 8.28 14.9 9.6ZM12.5 9.6C12.5 8.28 11.42 7.2 10.1 7.2C8.78 7.2 7.7 8.28 7.7 9.6C7.7 10.92 8.78 12 10.1 12C11.42 12 12.5 10.92 12.5 9.6ZM5.3 9.6C5.3 8.28 4.22 7.2 2.9 7.2C1.58 7.2 0.5 8.28 0.5 9.6C0.5 10.92 1.58 12 2.9 12C4.22 12 5.3 10.92 5.3 9.6Z" fill="white" fill-opacity="0.66"/>
</svg>
