<svg width="17" height="16" viewBox="0 0 17 16" fill="none" xmlns="http://www.w3.org/2000/svg">
<path d="M1.74256 0.093017C1.06369 -0.246417 0.311107 0.399308 0.54311 1.12218L2.17628 6.19826C2.20839 6.29804 2.26733 6.38708 2.34665 6.45561C2.42597 6.52415 2.52261 6.56955 2.626 6.58683L9.40839 7.71771C9.72669 7.77085 9.72669 8.228 9.40839 8.28115L2.62657 9.41145C2.52308 9.42864 2.42631 9.474 2.34689 9.54254C2.26746 9.61108 2.20843 9.70016 2.17628 9.80003L0.54311 14.8778C0.310535 15.6007 1.06312 16.2464 1.74256 15.907L16.0251 8.76687C16.6571 8.45086 16.6571 7.54971 16.0251 7.23313L1.74256 0.093017Z" fill="white" fill-opacity="0.66"/>
</svg>
