<svg width="22" height="16" viewBox="0 0 22 16" fill="none" xmlns="http://www.w3.org/2000/svg">
<path d="M11.671 2.91339C11.5944 2.76032 11.6511 2.57671 11.7746 2.45825C12.0455 2.1984 12.2143 1.83125 12.2143 1.42857C12.2143 0.639286 11.575 0 10.7857 0C9.99643 0 9.35714 0.639286 9.35714 1.42857C9.35714 1.83398 9.52581 2.19943 9.79666 2.45847C9.92034 2.57675 9.97698 2.76032 9.90045 2.91339L7.98928 6.73571C7.66429 7.38571 6.82143 7.57143 6.25357 7.11786L3.32053 4.77077C3.18161 4.6596 3.16007 4.45932 3.23277 4.29694C3.31248 4.11891 3.35714 3.92181 3.35714 3.71429C3.35714 2.925 2.71786 2.28571 1.92857 2.28571C1.13929 2.28571 0.5 2.925 0.5 3.71429C0.5 4.50357 1.13929 5.14286 1.92857 5.14286C1.94305 5.14286 1.95545 5.15321 1.95804 5.16745L3.58571 14.1214C3.78214 15.2071 4.72857 16 5.83571 16H15.7357C16.8393 16 17.7857 15.2107 17.9857 14.1214L19.6134 5.16745C19.616 5.15321 19.6284 5.14286 19.6429 5.14286C20.4321 5.14286 21.0714 4.50357 21.0714 3.71429C21.0714 2.925 20.4321 2.28571 19.6429 2.28571C18.8536 2.28571 18.2143 2.925 18.2143 3.71429C18.2143 3.92181 18.2589 4.11891 18.3387 4.29694C18.4114 4.45932 18.3898 4.6596 18.2509 4.77077L15.3179 7.11786C14.75 7.57143 13.9071 7.38571 13.5821 6.73571L11.671 2.91339Z" fill="white" fill-opacity="0.66"/>
</svg>
