<svg width="20" height="22" viewBox="0 0 20 22" fill="none" xmlns="http://www.w3.org/2000/svg">
<path d="M5.35537 1.8265C5.35537 1.38474 5.35537 1.16386 5.43974 0.995132C5.51395 0.846714 5.63238 0.726047 5.77803 0.650424C5.94362 0.564453 6.16039 0.564453 6.59393 0.564453H13.4061C13.8396 0.564453 14.0564 0.564453 14.222 0.650424C14.3676 0.726047 14.486 0.846714 14.5603 0.995132C14.6446 1.16386 14.6446 1.38474 14.6446 1.8265V9.67562C14.6446 10.0136 14.6446 10.1825 14.7092 10.3116C14.766 10.4252 14.8565 10.5175 14.968 10.5753C15.0947 10.6411 15.2605 10.6411 15.5921 10.6411H18.55C19.2675 10.6411 19.6263 10.6411 19.7924 10.7857C19.9365 10.9111 20.013 11.0993 19.9982 11.2918C19.981 11.5138 19.7273 11.7723 19.22 12.2892L10.67 21.0013C10.4355 21.2402 10.3182 21.3597 10.183 21.4045C10.0641 21.4439 9.93594 21.4439 9.817 21.4045C9.68179 21.3597 9.56453 21.2402 9.33001 21.0013L0.780011 12.2892C0.27265 11.7723 0.0189698 11.5138 0.00182875 11.2918C-0.0130442 11.0993 0.0634518 10.9111 0.207597 10.7857C0.373723 10.6411 0.732482 10.6411 1.45 10.6411H4.40786C4.73952 10.6411 4.90535 10.6411 5.03202 10.5753C5.14345 10.5175 5.23404 10.4252 5.29082 10.3116C5.35536 10.1825 5.35537 10.0136 5.35537 9.67562V1.8265Z" fill="white" fill-opacity="0.66"/>
</svg>
