<svg width="21" height="20" viewBox="0 0 21 20" fill="none" xmlns="http://www.w3.org/2000/svg">
<path d="M3.97222 20C3.05133 20 2.16816 19.6342 1.51699 18.983C0.865824 18.3318 0.500002 17.4487 0.500002 16.5278L0.5 3.47222C0.5 2.55133 0.865822 1.66816 1.51699 1.01699C2.16816 0.365823 3.05133 7.19474e-07 3.97222 6.38967e-07L11.2811 0C11.4634 -1.59295e-08 11.6111 0.147746 11.6111 0.33L11.6111 5.41667C11.6111 6.33756 11.9769 7.22073 12.6281 7.8719C13.2793 8.52307 14.1624 8.88889 15.0833 8.88889L20.17 8.88889C20.3523 8.88889 20.5 9.03663 20.5 9.21889V16.5278C20.5 17.4487 20.1342 18.3318 19.483 18.983C18.8318 19.6342 17.9487 20 17.0278 20L3.97222 20ZM19.9483 7.05088C20.078 7.25258 19.9208 7.5 19.681 7.5L15.0833 7.5C14.5308 7.5 14.0009 7.28051 13.6102 6.88981C13.2195 6.49911 13 5.9692 13 5.41667V0.819225C13 0.579344 13.2475 0.422118 13.4492 0.551978C13.6572 0.685913 13.8509 0.841788 14.0267 1.01722L19.4828 6.47278C19.6583 6.64877 19.8143 6.84263 19.9483 7.05088Z" fill="white" fill-opacity="0.66"/>
</svg>
