<svg width="23" height="18" viewBox="0 0 23 18" fill="none" xmlns="http://www.w3.org/2000/svg">
<path d="M0.5 4.5C0.5 3.2625 1.5125 2.25 2.75 2.25H5.29657C5.82701 2.25 6.33571 2.03929 6.71079 1.66421L7.78921 0.585786C8.16429 0.210713 8.67299 0 9.20343 0H14.2966C14.827 0 15.3357 0.210714 15.7108 0.585786L16.7892 1.66421C17.1643 2.03929 17.673 2.25 18.2034 2.25H20.75C21.3467 2.25 21.919 2.48705 22.341 2.90901C22.7629 3.33097 23 3.90326 23 4.5V15.75C23 16.3467 22.7629 16.919 22.341 17.341C21.919 17.7629 21.3467 18 20.75 18H2.75C2.15326 18 1.58097 17.7629 1.15901 17.341C0.737053 16.919 0.5 16.3467 0.5 15.75V4.5ZM11.75 15.75C13.2418 15.75 14.6726 15.1574 15.7275 14.1025C16.7824 13.0476 17.375 11.6168 17.375 10.125C17.375 8.63316 16.7824 7.20242 15.7275 6.14752C14.6726 5.09263 13.2418 4.5 11.75 4.5C10.2582 4.5 8.82742 5.09263 7.77252 6.14752C6.71763 7.20242 6.125 8.63316 6.125 10.125C6.125 11.6168 6.71763 13.0476 7.77252 14.1025C8.82742 15.1574 10.2582 15.75 11.75 15.75ZM11.75 13.5C11.3068 13.5 10.8679 13.4127 10.4584 13.2431C10.049 13.0735 9.67691 12.8249 9.36351 12.5115C9.05012 12.1981 8.80152 11.826 8.63191 11.4166C8.4623 11.0071 8.375 10.5682 8.375 10.125C8.375 9.68179 8.4623 9.24292 8.63191 8.83344C8.80152 8.42397 9.05012 8.05191 9.36351 7.73851C9.67691 7.42512 10.049 7.17652 10.4584 7.00691C10.8679 6.8373 11.3068 6.75 11.75 6.75C12.6451 6.75 13.5036 7.10558 14.1365 7.73851C14.7694 8.37145 15.125 9.22989 15.125 10.125C15.125 11.0201 14.7694 11.8786 14.1365 12.5115C13.5036 13.1444 12.6451 13.5 11.75 13.5Z" fill="white" fill-opacity="0.66"/>
</svg>
