<svg width="21" height="16" viewBox="0 0 21 16" fill="none" xmlns="http://www.w3.org/2000/svg">
<path fill-rule="evenodd" clip-rule="evenodd" d="M3.66612 4.27765L3.45446 5.12476C3.34322 5.56999 2.94321 5.88235 2.48429 5.88235H1.20588C1.01867 5.88235 0.839127 5.95672 0.706748 6.0891C0.57437 6.22148 0.5 6.40102 0.5 6.58824C0.5 6.77545 0.57437 6.95499 0.706748 7.08737C0.839127 7.21975 1.01867 7.29412 1.20588 7.29412H20.0294C20.2166 7.29412 20.3962 7.21975 20.5285 7.08737C20.6609 6.95499 20.7353 6.77545 20.7353 6.58824C20.7353 6.40102 20.6609 6.22148 20.5285 6.0891C20.3962 5.95672 20.2166 5.88235 20.0294 5.88235H18.7515C18.2928 5.88235 17.8929 5.57026 17.7815 5.12529L17.5692 4.27765C17.0553 2.22306 16.7993 1.19624 16.0332 0.597647C15.2671 2.24394e-07 14.2082 0 12.0906 0H9.14471C7.02706 0 5.96824 2.24394e-07 5.20212 0.597647C4.436 1.19624 4.17906 2.22306 3.66612 4.27765ZM5.44118 16C6.16803 16 6.87448 15.7596 7.45053 15.3163C7.90673 14.9653 8.26087 14.5026 8.48098 13.9763C8.59171 13.7115 8.77317 13.4756 9.02987 13.3473L9.67082 13.0268C9.96481 12.8799 10.289 12.8034 10.6176 12.8034C10.9463 12.8034 11.2705 12.8799 11.5645 13.0268L12.2061 13.3476C12.4624 13.4758 12.6437 13.7111 12.7546 13.9754C13.0028 14.5672 13.42 15.077 13.9586 15.438C14.6226 15.8831 15.4258 16.0716 16.2185 15.9684C17.0112 15.8652 17.7393 15.4774 18.2673 14.8772C18.7953 14.277 19.087 13.5053 19.0882 12.7059C19.0895 11.8965 18.7927 11.1149 18.2545 10.5104C17.7162 9.90583 16.9743 9.5206 16.1702 9.4282C15.366 9.33581 14.556 9.5427 13.8947 10.0094C13.3524 10.3922 12.9411 10.9277 12.7102 11.543C12.6323 11.7504 12.3942 11.8636 12.196 11.7647V11.7647C11.7059 11.5197 11.1656 11.3921 10.6176 11.3921C10.0697 11.3921 9.52936 11.5197 9.03929 11.7647V11.7647C8.84091 11.8637 8.60254 11.7507 8.52411 11.5433C8.29203 10.9297 7.88058 10.3959 7.3387 10.0145C6.67777 9.54929 5.86892 9.34322 5.06597 9.43548C4.26302 9.52775 3.52199 9.9119 2.9838 10.5149C2.44562 11.1179 2.14782 11.8976 2.14706 12.7059C2.14706 13.5795 2.49412 14.4174 3.11188 15.0352C3.72965 15.6529 4.56752 16 5.44118 16Z" fill="white" fill-opacity="0.66"/>
</svg>
