<svg width="28" height="24" viewBox="0 0 28 24" fill="none" xmlns="http://www.w3.org/2000/svg">
<path fill-rule="evenodd" clip-rule="evenodd" d="M17.1906 3.37049C16.7392 2.9768 15.5661 2.64474 14.0052 3.62699C9.01837 6.76863 4.67377 12.4355 3.20436 14.4895C3.09039 14.6488 2.94615 14.784 2.7799 14.8876C2.61364 14.9911 2.42862 15.0609 2.2354 15.0929C2.04217 15.125 1.84453 15.1186 1.65376 15.0743C1.46298 15.0299 1.28281 14.9484 1.12353 14.8345C0.964249 14.7205 0.828977 14.5763 0.725438 14.41C0.621898 14.2437 0.552119 14.0587 0.520084 13.8655C0.48805 13.6723 0.494387 13.4746 0.538734 13.2839C0.583081 13.0931 0.66457 12.9129 0.778548 12.7536C2.26983 10.6718 6.89876 4.57744 12.4165 1.10176C14.8045 -0.401451 17.469 -0.337823 19.1471 1.11767C19.9842 1.84342 20.5072 2.88732 20.5151 4.07239C20.5231 5.24752 20.026 6.41271 19.1193 7.44865C16.2819 10.6937 12.5338 15.0939 10.959 17.2414C10.7522 17.5237 10.7383 17.7385 10.7562 17.8618C10.7761 18.0009 10.8497 18.1322 10.9749 18.2256C11.1485 18.345 11.3615 18.3927 11.5695 18.3589C11.8478 18.3251 12.2853 18.1719 12.8182 17.6848C13.2675 17.2712 13.7348 16.8298 14.216 16.3784C15.6973 14.9846 17.298 13.4754 18.9006 12.2963C20.5668 11.0715 22.5154 10.7315 23.9928 11.6342C24.7305 12.0855 25.2495 12.8073 25.4304 13.6703C25.6094 14.5253 25.4384 15.4161 25.0069 16.2353C24.5456 17.1141 24.1439 17.7464 23.784 18.3151L23.7562 18.3608C23.4105 18.889 23.0887 19.4323 22.7918 19.9893C22.7259 20.1156 22.6875 20.2545 22.6793 20.3968C22.6711 20.539 22.6932 20.6814 22.7441 20.8145C22.7918 20.9338 22.8376 20.9915 22.8634 21.0153C23.0463 21.0292 23.2054 20.9835 23.4579 20.7886C23.8119 20.5123 24.2076 20.045 24.8021 19.2656C25.0423 18.9513 25.3975 18.7452 25.7896 18.6929C26.1817 18.6405 26.5786 18.746 26.8929 18.9862C27.2072 19.2264 27.4132 19.5816 27.4656 19.9737C27.5179 20.3658 27.4124 20.7627 27.1722 21.077C26.6055 21.8186 25.9911 22.5961 25.2872 23.1449C24.5078 23.7493 23.5633 24.1172 22.416 23.9661C21.1574 23.803 20.3322 22.8327 19.9683 21.9041C19.7612 21.3737 19.67 20.805 19.7009 20.2364C19.7318 19.6678 19.884 19.1123 20.1473 18.6074C20.5251 17.8836 20.883 17.3209 21.223 16.7861L21.2648 16.7184C21.6167 16.1637 21.9647 15.6129 22.3683 14.8454C22.5373 14.5233 22.5214 14.3384 22.5095 14.2807C22.5065 14.2593 22.4985 14.2389 22.486 14.2213C22.4736 14.2037 22.4571 14.1893 22.4379 14.1793C22.3524 14.1256 21.7479 13.9049 20.6683 14.7002C19.2247 15.7601 17.8189 17.0863 16.3734 18.4463C15.8663 18.9236 15.3533 19.4067 14.8324 19.8839C12.9971 21.5661 10.7622 21.7908 9.18937 20.6137C7.65832 19.4684 7.23877 17.2732 8.55309 15.4797C10.2174 13.209 14.0549 8.70928 16.8744 5.48612C17.4133 4.86973 17.5346 4.38258 17.5326 4.09029C17.5327 3.95263 17.5022 3.81667 17.4434 3.6922C17.3846 3.56773 17.299 3.45785 17.1926 3.37049H17.1906ZM22.8833 21.0332L22.8773 21.0292C22.8813 21.0292 22.8833 21.0312 22.8833 21.0332Z" fill="white" fill-opacity="0.66"/>
</svg>
