<svg width="23" height="22" viewBox="0 0 23 22" fill="none" xmlns="http://www.w3.org/2000/svg">
<path d="M10.3889 2.11111H6.83333C4.96649 2.11111 4.03307 2.11111 3.32003 2.47442C2.69282 2.794 2.18289 3.30394 1.86331 3.93114C1.5 4.64418 1.5 5.5776 1.5 7.44444V15.6667C1.5 17.5335 1.5 18.4669 1.86331 19.18C2.18289 19.8072 2.69282 20.3171 3.32003 20.6367C4.03307 21 4.96649 21 6.83333 21H15.0556C16.9224 21 17.8558 21 18.5689 20.6367C19.1961 20.3171 19.706 19.8072 20.0256 19.18C20.3889 18.4669 20.3889 17.5335 20.3889 15.6667V12.1111M20.5237 1.97631C21.8254 3.27806 21.8254 5.38861 20.5237 6.69036C19.2219 7.9921 17.1114 7.9921 15.8096 6.69036C14.5079 5.38861 14.5079 3.27806 15.8096 1.97631C17.1114 0.674563 19.2219 0.674563 20.5237 1.97631Z" stroke="white" stroke-opacity="0.66" stroke-width="1.4" stroke-linecap="round" stroke-linejoin="round"/>
</svg>
