<svg width="22" height="22" viewBox="0 0 22 22" fill="none" xmlns="http://www.w3.org/2000/svg">
<path d="M6.55556 1.7C6.94215 1.7 7.25556 1.3866 7.25556 1C7.25556 0.613401 6.94215 0.3 6.55556 0.3V1.7ZM0.3 6.55556C0.3 6.94215 0.613401 7.25556 1 7.25556C1.3866 7.25556 1.7 6.94215 1.7 6.55556H0.3ZM2.82003 1.36331L3.13782 1.98702L3.13782 1.98702L2.82003 1.36331ZM1.36331 2.82003L1.98702 3.13782L1.98702 3.13782L1.36331 2.82003ZM6.55556 21.7C6.94215 21.7 7.25556 21.3866 7.25556 21C7.25556 20.6134 6.94215 20.3 6.55556 20.3V21.7ZM1.7 15.4444C1.7 15.0578 1.3866 14.7444 1 14.7444C0.613401 14.7444 0.3 15.0578 0.3 15.4444H1.7ZM2.82003 20.6367L2.50224 21.2604L2.50224 21.2604L2.82003 20.6367ZM1.36331 19.18L1.98702 18.8622L1.98702 18.8622L1.36331 19.18ZM20.3 6.55556C20.3 6.94215 20.6134 7.25556 21 7.25556C21.3866 7.25556 21.7 6.94215 21.7 6.55556H20.3ZM15.4444 0.3C15.0578 0.3 14.7444 0.613401 14.7444 1C14.7444 1.3866 15.0578 1.7 15.4444 1.7V0.3ZM20.6367 2.82003L21.2604 2.50224L21.2604 2.50224L20.6367 2.82003ZM19.18 1.36331L18.8622 1.98702L18.8622 1.98702L19.18 1.36331ZM21.7 15.4444C21.7 15.0578 21.3866 14.7444 21 14.7444C20.6134 14.7444 20.3 15.0578 20.3 15.4444H21.7ZM15.4444 20.3C15.0578 20.3 14.7444 20.6134 14.7444 21C14.7444 21.3866 15.0578 21.7 15.4444 21.7V20.3ZM20.6367 19.18L21.2604 19.4978L21.2604 19.4978L20.6367 19.18ZM19.18 20.6367L19.4978 21.2604L19.4978 21.2604L19.18 20.6367ZM6.33333 1.7H6.55556V0.3H6.33333V1.7ZM1.7 6.55556V6.33333H0.3V6.55556H1.7ZM6.33333 0.3C5.41146 0.3 4.67796 0.299456 4.087 0.347739C3.48788 0.396689 2.97389 0.499291 2.50224 0.739607L3.13782 1.98702C3.37922 1.86402 3.68846 1.78497 4.20101 1.74309C4.72173 1.70054 5.38836 1.7 6.33333 1.7V0.3ZM1.7 6.33333C1.7 5.38836 1.70054 4.72173 1.74309 4.20101C1.78497 3.68846 1.86402 3.37922 1.98702 3.13782L0.739607 2.50224C0.499291 2.97389 0.396689 3.48788 0.347739 4.087C0.299456 4.67796 0.3 5.41146 0.3 6.33333H1.7ZM2.50224 0.739607C1.74332 1.1263 1.1263 1.74332 0.739607 2.50224L1.98702 3.13782C2.23948 2.64233 2.64233 2.23948 3.13782 1.98702L2.50224 0.739607ZM6.33333 21.7H6.55556V20.3H6.33333V21.7ZM0.3 15.4444V15.6667H1.7V15.4444H0.3ZM6.33333 20.3C5.38836 20.3 4.72173 20.2995 4.20101 20.2569C3.68846 20.215 3.37922 20.136 3.13783 20.013L2.50224 21.2604C2.97389 21.5007 3.48788 21.6033 4.087 21.6523C4.67796 21.7005 5.41146 21.7 6.33333 21.7V20.3ZM0.3 15.6667C0.3 16.5885 0.299456 17.322 0.347739 17.913C0.39669 18.5121 0.499291 19.0261 0.739607 19.4978L1.98702 18.8622C1.86402 18.6208 1.78497 18.3115 1.74309 17.799C1.70054 17.2783 1.7 16.6116 1.7 15.6667H0.3ZM3.13783 20.013C2.64233 19.7605 2.23948 19.3577 1.98702 18.8622L0.739607 19.4978C1.1263 20.2567 1.74332 20.8737 2.50224 21.2604L3.13783 20.013ZM20.3 6.33333V6.55556H21.7V6.33333H20.3ZM15.4444 1.7H15.6667V0.3H15.4444V1.7ZM21.7 6.33333C21.7 5.41146 21.7005 4.67796 21.6523 4.087C21.6033 3.48788 21.5007 2.97389 21.2604 2.50224L20.013 3.13783C20.136 3.37922 20.215 3.68846 20.2569 4.20101C20.2995 4.72173 20.3 5.38836 20.3 6.33333H21.7ZM15.6667 1.7C16.6116 1.7 17.2783 1.70054 17.799 1.74309C18.3115 1.78497 18.6208 1.86402 18.8622 1.98702L19.4978 0.739608C19.0261 0.499291 18.5121 0.39669 17.913 0.347739C17.322 0.299456 16.5885 0.3 15.6667 0.3V1.7ZM21.2604 2.50224C20.8737 1.74332 20.2567 1.1263 19.4978 0.739607L18.8622 1.98702C19.3577 2.23948 19.7605 2.64233 20.013 3.13783L21.2604 2.50224ZM21.7 15.6667V15.4444H20.3V15.6667H21.7ZM15.4444 21.7H15.6667V20.3H15.4444V21.7ZM20.3 15.6667C20.3 16.6116 20.2995 17.2783 20.2569 17.799C20.215 18.3115 20.136 18.6208 20.013 18.8622L21.2604 19.4978C21.5007 19.0261 21.6033 18.5121 21.6523 17.913C21.7005 17.322 21.7 16.5885 21.7 15.6667H20.3ZM15.6667 21.7C16.5885 21.7 17.322 21.7005 17.913 21.6523C18.5121 21.6033 19.0261 21.5007 19.4978 21.2604L18.8622 20.013C18.6208 20.136 18.3115 20.215 17.799 20.2569C17.2783 20.2995 16.6116 20.3 15.6667 20.3V21.7ZM20.013 18.8622C19.7605 19.3577 19.3577 19.7605 18.8622 20.013L19.4978 21.2604C20.2567 20.8737 20.8737 20.2567 21.2604 19.4978L20.013 18.8622ZM15.5194 15.1569C15.5194 15.4269 15.268 15.8767 14.385 16.3005C13.5526 16.7001 12.3533 16.9667 10.9907 16.9667V18.3667C12.5158 18.3667 13.9309 18.0714 14.9909 17.5626C16.0004 17.0781 16.9194 16.273 16.9194 15.1569H15.5194ZM10.9907 16.9667C9.62803 16.9667 8.42877 16.7001 7.59628 16.3005C6.71336 15.8767 6.4619 15.4269 6.4619 15.1569H5.0619C5.0619 16.273 5.98094 17.0781 6.99046 17.5626C8.05041 18.0714 9.46553 18.3667 10.9907 18.3667V16.9667ZM6.4619 15.1569C6.4619 14.8869 6.71336 14.437 7.59628 14.0132C8.42877 13.6136 9.62803 13.3471 10.9907 13.3471V11.9471C9.46553 11.9471 8.05041 12.2423 6.99046 12.7511C5.98094 13.2357 5.0619 14.0407 5.0619 15.1569H6.4619ZM10.9907 13.3471C12.3533 13.3471 13.5526 13.6136 14.385 14.0132C15.268 14.437 15.5194 14.8869 15.5194 15.1569H16.9194C16.9194 14.0407 16.0004 13.2357 14.9909 12.7511C13.9309 12.2423 12.5158 11.9471 10.9907 11.9471V13.3471ZM13.4279 7.47059C13.4279 8.81665 12.3367 9.90784 10.9907 9.90784V11.3078C13.1099 11.3078 14.8279 9.58985 14.8279 7.47059H13.4279ZM10.9907 9.90784C9.64461 9.90784 8.55341 8.81665 8.55341 7.47059H7.15341C7.15341 9.58985 8.87141 11.3078 10.9907 11.3078V9.90784ZM8.55341 7.47059C8.55341 6.12453 9.64461 5.03333 10.9907 5.03333V3.63333C8.87141 3.63333 7.15341 5.35133 7.15341 7.47059H8.55341ZM10.9907 5.03333C12.3367 5.03333 13.4279 6.12453 13.4279 7.47059H14.8279C14.8279 5.35133 13.1099 3.63333 10.9907 3.63333V5.03333Z" fill="white" fill-opacity="0.66"/>
</svg>
