<svg width="22" height="22" viewBox="0 0 22 22" fill="none" xmlns="http://www.w3.org/2000/svg">
<path d="M13.3433 9.125L21 1.60668M21 1.60668V7.25M21 1.60668H14.75M2.77778 1H7C7.62228 1 7.93342 1 8.1711 1.1211C8.38017 1.22763 8.55015 1.39761 8.65667 1.60668C8.77778 1.84436 8.77778 2.1555 8.77778 2.77778V7C8.77778 7.62228 8.77778 7.93342 8.65667 8.1711C8.55015 8.38017 8.38017 8.55015 8.1711 8.65667C7.93342 8.77778 7.62228 8.77778 7 8.77778H2.77778C2.1555 8.77778 1.84436 8.77778 1.60668 8.65667C1.39761 8.55015 1.22763 8.38017 1.1211 8.1711C1 7.93342 1 7.62228 1 7V2.77778C1 2.1555 1 1.84436 1.1211 1.60668C1.22763 1.39761 1.39761 1.22763 1.60668 1.1211C1.84436 1 2.1555 1 2.77778 1ZM15 13.2222H19.2222C19.8445 13.2222 20.1556 13.2222 20.3933 13.3433C20.6024 13.4499 20.7724 13.6198 20.8789 13.8289C21 14.0666 21 14.3777 21 15V19.2222C21 19.8445 21 20.1556 20.8789 20.3933C20.7724 20.6024 20.6024 20.7724 20.3933 20.8789C20.1556 21 19.8445 21 19.2222 21H15C14.3777 21 14.0666 21 13.8289 20.8789C13.6198 20.7724 13.4499 20.6024 13.3433 20.3933C13.2222 20.1556 13.2222 19.8445 13.2222 19.2222V15C13.2222 14.3777 13.2222 14.0666 13.3433 13.8289C13.4499 13.6198 13.6198 13.4499 13.8289 13.3433C14.0666 13.2222 14.3777 13.2222 15 13.2222ZM2.77778 13.2222H7C7.62228 13.2222 7.93342 13.2222 8.1711 13.3433C8.38017 13.4499 8.55015 13.6198 8.65667 13.8289C8.77778 14.0666 8.77778 14.3777 8.77778 15V19.2222C8.77778 19.8445 8.77778 20.1556 8.65667 20.3933C8.55015 20.6024 8.38017 20.7724 8.1711 20.8789C7.93342 21 7.62228 21 7 21H2.77778C2.1555 21 1.84436 21 1.60668 20.8789C1.39761 20.7724 1.22763 20.6024 1.1211 20.3933C1 20.1556 1 19.8445 1 19.2222V15C1 14.3777 1 14.0666 1.1211 13.8289C1.22763 13.6198 1.39761 13.4499 1.60668 13.3433C1.84436 13.2222 2.1555 13.2222 2.77778 13.2222Z" stroke="white" stroke-opacity="0.66" stroke-width="1.4" stroke-linecap="round" stroke-linejoin="round"/>
</svg>
