<svg width="19" height="18" viewBox="0 0 19 18" fill="none" xmlns="http://www.w3.org/2000/svg">
<path d="M17.5 17L13.6396 13.1396M13.6396 13.1396C14.2999 12.4793 14.8237 11.6953 15.1811 10.8326C15.5385 9.96978 15.7224 9.04507 15.7224 8.11121C15.7224 7.17735 15.5385 6.25264 15.1811 5.38987C14.8237 4.5271 14.2999 3.74316 13.6396 3.08283C12.9793 2.42249 12.1953 1.89868 11.3326 1.54131C10.4698 1.18394 9.54507 1 8.61121 1C7.67735 1 6.75264 1.18394 5.88987 1.54131C5.0271 1.89868 4.24316 2.42249 3.58283 3.08283C2.24921 4.41644 1.5 6.2252 1.5 8.11121C1.5 9.99722 2.24921 11.806 3.58283 13.1396C4.91644 14.4732 6.7252 15.2224 8.61121 15.2224C10.4972 15.2224 12.306 14.4732 13.6396 13.1396Z" stroke="white" stroke-opacity="0.66" stroke-width="1.4" stroke-linecap="round" stroke-linejoin="round"/>
</svg>
