<svg width="19" height="22" viewBox="0 0 19 22" fill="none" xmlns="http://www.w3.org/2000/svg">
<path d="M15.5 8C15.3993 6.81157 14.9066 5.69028 14.0993 4.81237C13.5012 4.16195 12.7555 3.67243 11.931 3.38121C11.4401 3.20777 11.1018 2.74257 10.997 2.23249C10.8699 1.61312 10.4915 1 9.5 1C8.50851 1 8.13014 1.61312 8.00295 2.23249C7.8982 2.74257 7.55994 3.20777 7.06895 3.38121C6.24449 3.67243 5.4988 4.16195 4.90068 4.81237C4.09337 5.69028 3.60066 6.81157 3.5 8V13.5858C3.5 13.851 3.39464 14.1054 3.20711 14.2929L1.70711 15.7929C1.5745 15.9255 1.5 16.1054 1.5 16.2929C1.5 16.6834 1.81658 17 2.20711 17H16.7929C17.1834 17 17.5 16.6834 17.5 16.2929C17.5 16.1054 17.4255 15.9255 17.2929 15.7929L15.7929 14.2929C15.6054 14.1054 15.5 13.851 15.5 13.5858V8ZM9.5 21C10.2956 21 11.0587 20.6839 11.6213 20.1213C11.9454 19.7972 12.1877 19.4066 12.3349 18.9816C12.5156 18.4597 12.0523 18 11.5 18H7.5C6.94772 18 6.48442 18.4597 6.66514 18.9816C6.81232 19.4066 7.05459 19.7972 7.37868 20.1213C7.94129 20.6839 8.70435 21 9.5 21Z" stroke="white" stroke-opacity="0.66" stroke-width="1.4"/>
</svg>
