<svg width="22" height="22" viewBox="0 0 22 22" fill="none" xmlns="http://www.w3.org/2000/svg">
<path d="M6.93975 15.0603L1 21M10.4234 5.63695L8.78441 7.2759C8.65071 7.40959 8.58387 7.47643 8.50771 7.52955C8.44011 7.5767 8.36719 7.61572 8.29047 7.64581C8.20403 7.67972 8.11133 7.69826 7.92593 7.73534L4.07821 8.50488C3.07829 8.70487 2.57832 8.80486 2.34442 9.06847C2.14065 9.29812 2.0476 9.60544 2.08976 9.90955C2.13815 10.2586 2.49868 10.6192 3.21974 11.3402L10.6598 18.7803C11.3809 19.5014 11.7414 19.8619 12.0905 19.9103C12.3946 19.9525 12.7019 19.8594 12.9316 19.6556C13.1952 19.4217 13.2952 18.9218 13.4952 17.9218L14.2647 14.0741C14.3018 13.8887 14.3203 13.796 14.3542 13.7096C14.3843 13.6329 14.4234 13.5599 14.4705 13.4923C14.5236 13.4162 14.5905 13.3493 14.7242 13.2156L16.3631 11.5767C16.4486 11.4912 16.4913 11.4485 16.5383 11.4112C16.58 11.378 16.6242 11.3481 16.6705 11.3217C16.7226 11.2919 16.7782 11.2681 16.8893 11.2205L19.5084 10.098C20.2725 9.77053 20.6545 9.6068 20.828 9.34222C20.9798 9.11084 21.0341 8.82891 20.9791 8.55772C20.9163 8.24761 20.6223 7.9537 20.0345 7.36588L14.6342 1.96554C14.0464 1.37771 13.7524 1.0838 13.4423 1.02094C13.1711 0.965961 12.8892 1.02026 12.6578 1.17202C12.3933 1.34556 12.2295 1.7276 11.902 2.4917L10.7796 5.11079C10.732 5.2219 10.7082 5.27746 10.6784 5.32955C10.652 5.37583 10.622 5.42002 10.5889 5.46176C10.5516 5.50874 10.5088 5.55148 10.4234 5.63695Z" stroke="white" stroke-opacity="0.66" stroke-width="1.4" stroke-linecap="round" stroke-linejoin="round"/>
</svg>
